<svg width="163" height="43" viewBox="0 0 163 43" fill="none" xmlns="http://www.w3.org/2000/svg">
<path d="M2.46889 15.1708C3.77042 14.2883 5.46606 13.2998 6.65413 12.429L6.72465 25.0202C6.73299 29.867 5.74387 33.8896 10.2391 37.1683L10.2211 23.8697C11.5599 24.4632 12.5871 24.8917 14.0215 25.2715L14.005 29.5661C16.1729 29.5552 18.5342 29.6035 20.6805 29.5217L20.6802 25.2725C22.0298 24.897 23.1703 24.461 24.4673 23.9299C24.4643 28.3311 24.4131 32.856 24.4687 37.2476C30.3785 32.2435 27.4346 27.3457 28.2174 20.6976C28.0832 18.8448 28.1685 14.4047 28.2021 12.485C29.2292 13.1496 30.2514 13.8217 31.2687 14.5012C32.0942 14.9636 34.0438 16.2053 34.8403 16.7677C34.8441 18.9739 34.9297 21.4606 34.735 23.6405C34.0214 31.6304 28.0385 39.7326 20.6964 42.9713L20.6854 33.1508C18.4587 33.1381 16.2321 33.1383 14.0055 33.1512L14.0044 42.9507C8.13007 40.0542 3.35513 34.8896 1.22975 28.6624C0.338318 26.1068 -0.0643525 23.4064 0.0427003 20.702C-0.0346382 19.6634 0.0173612 17.8384 0.0141048 16.7419C0.773549 16.2042 1.67627 15.6444 2.46889 15.1708Z" fill="#0E7642"/>
<path d="M17.3214 0C17.682 0.158435 19.446 1.31632 19.8413 1.57L25.3761 5.13993L25.3853 3.56738L28.2958 3.57369L28.289 6.96106C30.2064 8.23068 32.8766 10.1034 34.8293 11.1504L34.8369 14.4485C33.3049 13.6236 30.9686 11.9976 29.4361 11.0151L18.4084 3.91406L17.3898 3.23108C11.6934 6.52931 5.71053 11.0749 0.0318427 14.4398L0.0256348 11.1624C5.72091 7.77003 11.5247 3.45626 17.3214 0Z" fill="#056739"/>
<path d="M14.0801 15.8445L17.1071 15.8397L17.1072 18.9204L14.0676 18.9395L14.0801 15.8445Z" fill="#F99D0B"/>
<path d="M17.8991 15.8435C18.8891 15.861 19.9125 15.8438 20.9052 15.8401L20.9073 18.9241L17.8792 18.9409L17.8991 15.8435Z" fill="#F99D0B"/>
<path d="M14.0757 11.9894L17.1157 11.9842C17.1048 13.0039 17.1016 14.0236 17.1063 15.0434L14.0662 15.0586L14.0757 11.9894Z" fill="#F99D0B"/>
<path d="M17.9006 11.9888L20.9037 11.9895L20.9017 15.0489L17.8837 15.0533C17.878 14.0317 17.8836 13.0102 17.9006 11.9888Z" fill="#F99D0B"/>
<g clip-path="url(#clip0_311_145)">
<path d="M74.5953 15.5643C76.705 15.3452 78.84 16.5135 80.3868 17.8207L80.4183 16.0274L84.0481 16.0239L84.0563 33.0274L80.4234 33.0218L80.3878 31.0903C79.7111 31.7055 79.0242 32.1264 78.2315 32.5672C75.3507 33.8853 71.5222 33.2615 69.0796 31.2823C67.2801 29.8087 66.1371 27.6829 65.9002 25.3693C65.6485 22.982 66.3658 20.5936 67.8914 18.7401C69.701 16.5562 71.8838 15.8271 74.5953 15.5643Z" fill="#045235"/>
<path d="M74.1339 19.0291C77.1221 18.5875 79.9002 20.6595 80.3286 23.6496C80.758 26.6398 78.6729 29.4087 75.6813 29.8243C72.7074 30.2373 69.9591 28.1689 69.5331 25.197C69.1072 22.2251 71.1637 19.468 74.1339 19.0291Z" fill="white"/>
<path d="M59.277 9.71002L63.0061 9.70819L63.0026 33.0228L59.2852 33.0231L59.2768 23.1582C55.1371 23.1098 50.8739 23.1562 46.7259 23.1564C46.677 26.4037 46.7218 29.7681 46.7209 33.025L43.0379 33.0275C43.044 25.3061 42.946 17.4151 43.0596 9.71084L46.7204 9.70951L46.7314 19.5714L59.2623 19.5788C59.373 16.4732 59.2806 12.8542 59.277 9.71002Z" fill="#045235"/>
<path d="M112.367 15.7616C113.037 15.7042 113.551 15.6946 114.225 15.7433C116.356 15.9004 118.337 16.9011 119.728 18.5235C121.659 20.7674 121.949 23.071 121.73 25.8971L108.24 25.9146C109.591 30.3844 114.419 30.9452 117.662 28.1934C117.887 28.2127 119.79 30.253 120.103 30.5738C116.704 33.6499 111.478 34.1406 107.797 31.2882C105.98 29.8646 104.807 27.7735 104.541 25.4805C104.258 23.1476 104.918 20.7984 106.374 18.9541C107.883 17.0454 109.983 16.0323 112.367 15.7616Z" fill="#045235"/>
<path d="M112.858 19.0164C115.664 18.6558 117.516 20.426 118.34 22.9517L113.803 22.9618L108.207 22.9502C108.938 20.5474 110.389 19.3264 112.858 19.0164Z" fill="white"/>
<path d="M130.892 15.7579C133.261 15.3193 136.037 16.2161 137.746 17.9019C140.289 20.4115 139.855 23.5466 139.847 26.8144L139.849 33.0226L136.338 33.0241L136.35 26.3615C136.356 23.483 136.729 20.0305 133.127 19.1126C132.745 19.0528 132.361 19.0221 131.974 19.0206C130.834 19.0145 129.732 19.3774 128.922 20.2008C128.374 20.7655 127.995 21.4735 127.83 22.2435C127.605 23.2605 127.684 25.3397 127.686 26.4676L127.698 33.0263L124.083 33.0229C124.065 30.9999 124.058 28.9767 124.061 26.9536C124.059 25.3812 123.964 23.0711 124.277 21.594C124.499 20.4966 124.966 19.4634 125.643 18.5715C126.972 16.8396 128.779 16.0397 130.892 15.7579Z" fill="#045235"/>
<path d="M85.6504 16.042L89.6028 16.0236C91.3073 19.8607 93.4178 24.4263 94.8862 28.2963C96.3811 24.3049 98.6321 20.0299 100.195 16.0223L104.092 16.0326C103.703 17.1446 103.154 18.2582 102.661 19.3328L99.0025 27.3469C98.3034 28.8934 97.646 30.4556 96.8472 31.954C96.141 33.3484 93.7954 33.4549 93.0352 32.0763C92.0756 30.3359 91.2676 28.3979 90.4464 26.5794L85.6504 16.042Z" fill="#045235"/>
<path d="M140.91 33.0267C142.303 29.5972 143.716 26.175 145.144 22.76C145.534 21.8183 146.165 20.5397 146.458 19.5978C147.248 17.0588 149.473 14.8237 152.393 16.0535C152.98 16.3031 153.495 16.6972 153.889 17.1992C155.223 18.8869 156.881 24.1585 158.006 26.2778C157.782 26.2436 157.459 26.1665 157.237 26.1065C156.115 25.8028 154.929 25.8033 153.805 25.5987C153.419 24.596 151.571 20.0361 150.932 19.4884C150.725 19.4819 150.659 19.4828 150.504 19.6313C149.827 20.282 145.427 31.3801 144.733 33.0229L140.91 33.0267Z" fill="#045235"/>
<path d="M153.805 25.5985C154.929 25.803 156.115 25.8026 157.237 26.1063C157.459 26.1663 157.782 26.2433 158.006 26.2776C159.752 26.715 161.004 26.3745 162.553 25.6266C161.645 27.4694 161.095 28.4187 159.077 29.2833C158.611 29.4502 158.454 29.4919 157.998 29.5939C157.517 29.7017 155.859 29.6311 155.597 29.7749C155.407 29.526 153.628 29.1538 153.272 29.0978C151.265 28.7818 149.547 28.7471 147.718 29.7216C149.31 26.8304 150.656 26.1272 153.805 25.5985Z" fill="#47A93C"/>
<path d="M152.488 27.1472C154.123 26.9856 155.179 27.3732 156.792 27.5637C158.044 27.7114 158.832 27.6404 160.082 27.494C158.716 28.0238 157.181 28.1941 155.756 27.7803C152.98 27.0677 151.427 27.4451 149.023 28.5332C149.576 27.6753 151.555 27.3198 152.488 27.1472Z" fill="white"/>
<path d="M155.597 29.7748C155.859 29.6311 157.516 29.7017 157.998 29.5938C158.454 29.4919 158.61 29.4501 159.076 29.2833C159.671 30.5345 160.134 31.7728 160.69 33.0241L156.858 33.0237C156.424 31.9614 155.952 30.862 155.597 29.7748Z" fill="#045235"/>
</g>
<defs>
<clipPath id="clip0_311_145">
<rect width="119.548" height="23.5546" fill="white" transform="translate(43.0046 9.70819)"/>
</clipPath>
</defs>
</svg>
