<svg width="333" height="88" viewBox="0 0 333 88" fill="none" xmlns="http://www.w3.org/2000/svg">
<path d="M5.05599 31.068C7.72135 29.2607 11.1938 27.2364 13.6268 25.4531L13.7713 51.2382C13.7883 61.164 11.7627 69.4016 20.9684 76.116L20.9315 48.8822C23.6733 50.0975 25.7769 50.9752 28.7144 51.7529L28.6804 60.5478C33.1201 60.5255 37.9559 60.6243 42.3511 60.4567L42.3505 51.755C45.1144 50.986 47.4499 50.0931 50.1061 49.0056C50.0998 58.0186 49.995 67.2851 50.1088 76.2785C62.2115 66.0306 56.1827 56.0006 57.7858 42.3862C57.511 38.5917 57.6856 29.4991 57.7544 25.5677C59.8579 26.9286 61.9512 28.305 64.0345 29.6966C65.725 30.6435 69.7175 33.1864 71.3486 34.3382C71.3565 38.8562 71.5317 43.9487 71.1331 48.4127C69.6716 64.7751 57.4195 81.3675 42.3836 88L42.3611 67.8888C37.8012 67.8627 33.2413 67.8631 28.6815 67.8896L28.6794 87.9577C16.6494 82.026 6.8709 71.4496 2.51837 58.6971C0.692833 53.4635 -0.131786 47.9334 0.087445 42.3952C-0.0709348 40.2682 0.0355535 36.5308 0.0288849 34.2852C1.58413 33.1841 3.4328 32.0378 5.05599 31.068Z" fill="#0E7642"/>
<path d="M35.4721 0C36.2106 0.324455 39.8229 2.69567 40.6325 3.21517L51.9671 10.5259L51.9861 7.30556L57.9464 7.31848L57.9324 14.2554C61.859 16.8554 67.3272 20.6905 71.3261 22.8346L71.3418 29.5888C68.2044 27.8994 63.4199 24.5696 60.2814 22.5577L37.6981 8.01552L35.6121 6.61685C23.9466 13.3712 11.6945 22.68 0.0652033 29.5709L0.0524902 22.8592C11.7157 15.9121 23.6011 7.078 35.4721 0Z" fill="#056739"/>
<path d="M28.8345 32.4477L35.0334 32.4377L35.0336 38.7468L28.8088 38.7857L28.8345 32.4477Z" fill="#F99D0B"/>
<path d="M36.6551 32.4456C38.6826 32.4815 40.7784 32.4462 42.8113 32.4387L42.8155 38.7543L36.6143 38.7886L36.6551 32.4456Z" fill="#F99D0B"/>
<path d="M28.8253 24.5528L35.0508 24.5422C35.0283 26.6304 35.0219 28.7186 35.0314 30.8071L28.8057 30.8381L28.8253 24.5528Z" fill="#F99D0B"/>
<path d="M36.6584 24.5516L42.8083 24.553L42.8042 30.8183L36.6238 30.8273C36.6121 28.7353 36.6236 26.6433 36.6584 24.5516Z" fill="#F99D0B"/>
<g clip-path="url(#clip0_380_72)">
<path d="M152.762 31.8742C157.083 31.4253 161.455 33.818 164.623 36.4949L164.687 32.8225L172.121 32.8152L172.137 67.6364L164.698 67.6249L164.625 63.6695C163.239 64.9292 161.832 65.7913 160.209 66.694C154.309 69.3932 146.469 68.1159 141.467 64.0626C137.782 61.0449 135.441 56.6916 134.956 51.9535C134.44 47.0646 135.909 42.1734 139.034 38.3777C142.739 33.9053 147.21 32.4122 152.762 31.8742Z" fill="#045235"/>
<path d="M151.817 38.9696C157.937 38.0652 163.626 42.3083 164.503 48.4317C165.383 54.5553 161.113 60.2257 154.986 61.0767C148.896 61.9226 143.268 57.6867 142.396 51.6006C141.523 45.5146 145.735 39.8684 151.817 38.9696Z" fill="white"/>
<path d="M121.392 19.8853L129.029 19.8815L129.022 67.6269L121.409 67.6275L121.392 47.4254C112.914 47.3264 104.184 47.4215 95.6893 47.4219C95.5892 54.0719 95.6809 60.9617 95.6791 67.6315L88.1366 67.6367C88.1491 51.8242 87.9485 35.6644 88.1812 19.8869L95.678 19.8842L95.7005 40.0801L121.362 40.0953C121.589 33.7354 121.4 26.3242 121.392 19.8853Z" fill="#045235"/>
<path d="M230.114 32.2782C231.486 32.1607 232.538 32.1409 233.92 32.2407C238.283 32.5624 242.341 34.6117 245.187 37.9342C249.143 42.5295 249.737 47.2469 249.289 53.0344L221.662 53.0702C224.429 62.2239 234.316 63.3723 240.957 57.737C241.418 57.7764 245.315 61.9547 245.956 62.6117C238.996 68.9112 228.293 69.916 220.755 64.0748C217.033 61.1593 214.633 56.877 214.087 52.1812C213.507 47.4038 214.86 42.5928 217.842 38.816C220.93 34.9072 225.232 32.8325 230.114 32.2782Z" fill="#045235"/>
<path d="M231.119 38.9436C236.867 38.2051 240.659 41.8302 242.345 47.0025L233.055 47.0234L221.595 46.9996C223.092 42.0788 226.063 39.5784 231.119 38.9436Z" fill="white"/>
<path d="M268.052 32.2704C272.903 31.3723 278.588 33.2088 282.087 36.6611C287.295 41.8005 286.405 48.2209 286.391 54.9129L286.395 67.6265L279.203 67.6296L279.228 53.9854C279.241 48.0906 280.005 41.0203 272.628 39.1405C271.847 39.0182 271.059 38.9552 270.267 38.9521C267.933 38.9396 265.676 39.6829 264.017 41.3689C262.894 42.5255 262.119 43.9754 261.781 45.5523C261.319 47.6349 261.481 51.8928 261.485 54.2027L261.51 67.6342L254.106 67.6271C254.071 63.4842 254.056 59.3411 254.062 55.198C254.058 51.9778 253.862 47.2471 254.504 44.2222C254.958 41.9747 255.915 39.859 257.301 38.0325C260.022 34.4858 263.723 32.8477 268.052 32.2704Z" fill="#045235"/>
<path d="M175.402 32.8524L183.496 32.8147C186.986 40.6726 191.308 50.0222 194.315 57.9475C197.377 49.7736 201.987 41.019 205.187 32.8119L213.167 32.833C212.371 35.1102 211.248 37.3908 210.237 39.5915L202.745 56.0033C201.313 59.1703 199.967 62.3697 198.331 65.4381C196.885 68.2936 192.082 68.5118 190.525 65.6886C188.56 62.1244 186.905 58.1557 185.223 54.4317L175.402 32.8524Z" fill="#045235"/>
<path d="M288.567 67.635C291.42 60.6118 294.312 53.6034 297.238 46.61C298.036 44.6814 299.328 42.0631 299.929 40.1342C301.546 34.9346 306.103 30.3575 312.082 32.8758C313.285 33.387 314.339 34.194 315.146 35.2222C317.878 38.6783 321.272 49.4738 323.577 53.8141C323.119 53.7439 322.456 53.5861 322.002 53.4632C319.705 52.8414 317.275 52.8422 314.975 52.4233C314.183 50.3699 310.398 41.0318 309.09 39.9102C308.667 39.8969 308.531 39.8988 308.214 40.2028C306.829 41.5354 297.818 64.2629 296.396 67.6271L288.567 67.635Z" fill="#045235"/>
<path d="M314.975 52.423C317.275 52.8418 319.705 52.841 322.002 53.4628C322.456 53.5858 323.119 53.7435 323.577 53.8137C327.153 54.7094 329.717 54.0121 332.888 52.4805C331.029 56.2543 329.902 58.1983 325.77 59.969C324.815 60.3107 324.494 60.3962 323.561 60.605C322.575 60.8259 319.18 60.6813 318.645 60.9757C318.255 60.466 314.612 59.7037 313.883 59.5891C309.773 58.9419 306.253 58.8708 302.509 60.8665C305.768 54.9457 308.525 53.5057 314.975 52.423Z" fill="#47A93C"/>
<path d="M312.278 55.5944C315.625 55.2635 317.788 56.0573 321.091 56.4474C323.654 56.7499 325.269 56.6045 327.828 56.3046C325.031 57.3897 321.887 57.7383 318.969 56.891C313.284 55.4317 310.104 56.2046 305.182 58.4328C306.313 56.6759 310.367 55.9479 312.278 55.5944Z" fill="white"/>
<path d="M318.644 60.9756C319.18 60.6812 322.574 60.8258 323.56 60.6049C324.494 60.3961 324.815 60.3107 325.769 59.9689C326.986 62.5312 327.934 65.0673 329.074 67.6298L321.226 67.6289C320.338 65.4534 319.371 63.202 318.644 60.9756Z" fill="#045235"/>
</g>
<defs>
<clipPath id="clip0_380_72">
<rect width="244.82" height="48.237" fill="white" transform="translate(88.0684 19.8815)"/>
</clipPath>
</defs>
</svg>
